<svg xmlns="http://www.w3.org/2000/svg" xmlns:xlink="http://www.w3.org/1999/xlink" preserveAspectRatio="xMidYMid meet" version="1.0" viewBox="-0.2 -0.2 406.7 358.6" zoomAndPan="magnify" style="fill: rgb(0, 0, 0);" original_string_length="9682" width="360.8982697185908px" height="318.24665602457543px"><g id="__id2_s10zdlxc08"><path d="M404.3,167c0,0-14.8,18.8-69.1-2.1h0c10.8,9.5,14.7,27.2,9.8,30.2l0,0c6.5,16.3-3.7,24.5-12.8,17.4h0 c-3.1,3.8-8.8,6.1-19.1,6.1c-10.3,0-16-2.3-19.1-6.1h0c-9.1,7.1-19.3-1.1-12.8-17.4v0c-4.9-3-1.1-20.7,9.8-30.2h0 c-54.3,20.9-69.1,2.1-69.1,2.1c11.4-2.5,58.7-16.6,75.7-6c-4.1-37.2,10-38,10-38s-1.1-16.2,5.6-16.2c6.7,0,5.6,16.2,5.6,16.2 s14,0.7,10,38C345.6,150.4,393,164.5,404.3,167z M115.5,164.9L115.5,164.9c54.4,20.9,69.1,2.1,69.1,2.1c-11.4-2.5-58.7-16.6-75.7-6 c4.1-37.2-10-38-10-38s1.1-16.2-5.6-16.2c-6.7,0-5.6,16.2-5.6,16.2s-14,0.7-10,38c-17-10.6-64.4,3.5-75.7,6c0,0,14.8,18.8,69.1-2.1 h0c-10.8,9.5-14.7,27.2-9.8,30.2v0c-6.5,16.3,3.7,24.5,12.8,17.4h0c3.1,3.8,8.8,6.1,19.1,6.1c10.3,0,16-2.3,19.1-6.1h0 c9.1,7.1,19.3-1.1,12.8-17.4l0,0C130.1,192.1,126.3,174.4,115.5,164.9z M203.2,2c-28.4,32.5-5.6,43.1-5.6,43.1s-1.1,16.2,5.6,16.2 s5.6-16.2,5.6-16.2S231.5,34.4,203.2,2z M215.4,99.2c0.1,0,0.2,0,0.2,0c0.4,0,0.7-0.2,0.9-0.5c10.4-18.4,23.2-33.5,37.9-45.1 c0.3-0.3,0.5-0.7,0.3-1.1c-0.2-0.4-0.6-0.7-1-0.6c-6.7,0.3-19.4,2.2-28.4,11.3c-7.8,8-11.4,19.8-10.7,35.1 C214.6,98.7,214.9,99.1,215.4,99.2z M152.7,51.8c-0.4,0-0.8,0.2-1,0.6c-0.2,0.4,0,0.9,0.3,1.1c14.7,11.6,27.4,26.8,37.9,45.1 c0.2,0.3,0.5,0.5,0.9,0.5c0.1,0,0.2,0,0.2,0c0.4-0.1,0.7-0.5,0.8-0.9c0.7-15.3-2.9-27.2-10.7-35.1C172.1,54.1,159.4,52.1,152.7,51.8 z M253.7,208.7c-6.7,0.3-19.4,2.2-28.4,11.3c-7.8,8-11.4,19.8-10.7,35.1c0,0.4,0.3,0.8,0.8,0.9c0.1,0,0.2,0,0.2,0 c0.4,0,0.7-0.2,0.9-0.5c10.4-18.4,23.2-33.5,37.9-45.1c0.3-0.3,0.5-0.7,0.3-1.1C254.5,209,254.1,208.7,253.7,208.7z M152.7,208.7 c-0.4,0-0.8,0.2-1,0.6s0,0.9,0.3,1.1c14.7,11.6,27.4,26.8,37.9,45.1c0.2,0.3,0.5,0.5,0.9,0.5c0.1,0,0.2,0,0.2,0 c0.4-0.1,0.7-0.5,0.8-0.9c0.7-15.3-2.9-27.2-10.7-35.1C172.1,211,159.4,209.1,152.7,208.7z" style="fill: rgb(232, 223, 241);"/></g><g id="__id3_s10zdlxc08"><path d="M406.2,166.3c-0.2-0.6-0.8-1.1-1.5-1.3c-1.5-0.3-3.6-0.9-6.3-1.5c-16.8-4.2-50.5-12.6-67.5-5.9 c1.3-15.8-0.5-26.8-5.6-32.7c-1.7-2-3.4-3-4.7-3.4c0.1-3.5-0.1-11.3-3.4-14.8c-0.8-0.8-1.7-1.4-2.7-1.7c-1.5-4.1-7.5-16.1-28.1-16.1 c-28.7,0-52.6,16.8-69.1,48.5c-5.8,11.2-9.8,22.4-12.3,31.1v-37.1c1.1-3.8,15.8-50.5,55.6-78.9c0.7-0.5,1-1.3,0.8-2.1 s-0.9-1.4-1.7-1.5c-0.9-0.1-22.5-2.2-36.7,12.1c-9.5,9.7-13.3,24.3-11.1,43.6c-3,5.7-5.2,10.9-6.9,15V62.9c0.8-0.3,1.6-0.8,2.3-1.5 c3.4-3.6,3.5-11.9,3.4-15.2c2.2-1.4,6.7-5,8.2-11.7c2-9.3-2.8-20.7-14.3-33.8c-0.8-0.9-2.3-0.9-3,0c-11.5,13.1-16.3,24.5-14.3,33.8 c1.4,6.7,6,10.3,8.2,11.7c-0.1,3.3,0,11.6,3.4,15.2c0.7,0.7,1.4,1.2,2.3,1.5v56.8c-1.7-4.2-4-9.3-6.9-15c2.2-19.3-1.5-34-11.1-43.6 c-14.2-14.3-35.7-12.2-36.7-12.1c-0.8,0.1-1.5,0.7-1.7,1.5s0.1,1.7,0.8,2.1c39.8,28.4,54.5,75.1,55.6,78.9v37.1 c-2.5-8.7-6.4-19.9-12.3-31.1c-16.5-31.7-40.3-48.5-69.1-48.5c-20.6,0-26.6,12-28.1,16.1c-1,0.3-1.9,0.8-2.7,1.7 c-3.3,3.5-3.5,11.3-3.4,14.8c-1.3,0.5-3,1.5-4.7,3.4c-5,5.9-6.9,16.9-5.6,32.7c-17-6.7-50.7,1.7-67.5,5.9c-2.7,0.7-4.8,1.2-6.3,1.5 c-0.7,0.1-1.2,0.6-1.5,1.3c-0.2,0.6-0.1,1.4,0.3,1.9c0.4,0.5,7.1,8.5,26.4,8.5c9.3,0,21.6-1.9,37.5-7.3c-5.5,7.8-8.1,17.4-6.8,23 c0.3,1.3,0.8,2.4,1.5,3.2c-3.6,10.1-1,16.7,2.8,19.5c1.7,1.3,3.6,1.9,5.7,1.9c1.8,0,3.6-0.5,5.4-1.4L63.7,267 c-2.6,0.5-4.6,2.8-4.6,5.5c0,3.1,2.5,5.6,5.6,5.6s5.6-2.5,5.6-5.6c0-2-1.1-3.8-2.7-4.8l9-50.5c2.6,1.6,5.9,2.6,10,3.1l-11.2,62.6 c-2.6,0.5-4.6,2.8-4.6,5.5c0,3.1,2.5,5.6,5.6,5.6s5.6-2.5,5.6-5.6c0-2-1.1-3.8-2.7-4.8l11.2-63c0.9,0,1.8,0.1,2.7,0.1s1.8,0,2.7-0.1 l11.2,63c-1.6,1-2.7,2.8-2.7,4.8c0,3.1,2.5,5.6,5.6,5.6s5.6-2.5,5.6-5.6c0-2.7-2-5-4.6-5.5L100,220.3c4.1-0.5,7.3-1.5,10-3.1l9,50.5 c-1.6,1-2.7,2.8-2.7,4.8c0,3.1,2.5,5.6,5.6,5.6s5.6-2.5,5.6-5.6c0-2.7-2-5-4.6-5.5l-9.1-51.3c1.8,0.9,3.6,1.4,5.4,1.4 c2,0,4-0.6,5.7-1.9c3.8-2.8,6.4-9.4,2.8-19.5c0.7-0.8,1.2-1.9,1.5-3.2c1.3-5.6-1.3-15.2-6.8-23c15.9,5.4,28.2,7.3,37.5,7.3 c19.4,0,26-8,26.4-8.5c0.4-0.5,0.5-1.3,0.3-1.9c-0.2-0.6-0.8-1.1-1.5-1.3c-1.5-0.3-3.6-0.9-6.3-1.5c-16.8-4.2-50.5-12.6-67.5-5.9 c1.3-15.8-0.5-26.8-5.6-32.7c-1.7-2-3.4-3-4.7-3.4c0.1-3.5-0.1-11.3-3.4-14.8c-0.5-0.6-1.1-1-1.7-1.3c1.6-3.8,7-12.5,24-12.5 c27.5,0,49.5,15.5,65.5,46.2c11.6,22.2,15.5,44.8,15.9,46.7v90.7c-1.7-4.2-4-9.3-6.9-15c2.2-19.3-1.5-34-11.1-43.6 c-14.2-14.3-35.7-12.2-36.7-12.1c-0.8,0.1-1.5,0.7-1.7,1.5s0.1,1.7,0.8,2.1c39.8,28.4,54.5,75.1,55.6,78.9v68c0,1.1,0.9,2,2,2 s2-0.9,2-2v-68c1.1-3.8,15.8-50.5,55.6-78.9c0.7-0.5,1-1.3,0.8-2.1s-0.9-1.4-1.7-1.5c-0.9-0.1-22.5-2.2-36.7,12.1 c-9.5,9.7-13.3,24.3-11.1,43.6c-3,5.7-5.2,10.9-6.9,15v-90.7c0.3-2,4.3-24.5,15.9-46.7c15.9-30.7,38-46.2,65.5-46.2 c17,0,22.4,8.6,24,12.5c-0.6,0.3-1.2,0.7-1.7,1.3c-3.3,3.5-3.5,11.3-3.4,14.8c-1.3,0.5-3,1.5-4.7,3.4c-5,5.9-6.9,16.9-5.6,32.7 c-17-6.7-50.7,1.7-67.5,5.9c-2.7,0.7-4.8,1.2-6.3,1.5c-0.7,0.1-1.2,0.6-1.5,1.3c-0.2,0.6-0.1,1.4,0.3,1.9c0.4,0.5,7.1,8.5,26.4,8.5 c9.3,0,21.6-1.9,37.5-7.3c-5.5,7.8-8.1,17.4-6.8,23c0.3,1.3,0.8,2.4,1.5,3.2c-3.6,10.1-1,16.7,2.8,19.5c1.7,1.3,3.6,1.9,5.7,1.9 c1.8,0,3.6-0.5,5.4-1.4l-9.1,51.3c-2.6,0.5-4.6,2.8-4.6,5.5c0,3.1,2.5,5.6,5.6,5.6s5.6-2.5,5.6-5.6c0-2-1.1-3.8-2.7-4.8l9-50.5 c2.6,1.6,5.9,2.6,10,3.1l-11.2,62.6c-2.6,0.5-4.6,2.8-4.6,5.5c0,3.1,2.5,5.6,5.6,5.6s5.6-2.5,5.6-5.6c0-2-1.1-3.8-2.7-4.8l11.2-63 c0.9,0,1.8,0.1,2.7,0.1s1.8,0,2.7-0.1l11.2,63c-1.6,1-2.7,2.8-2.7,4.8c0,3.1,2.5,5.6,5.6,5.6s5.6-2.5,5.6-5.6c0-2.7-2-5-4.6-5.5 l-11.2-62.6c4.1-0.5,7.3-1.5,10-3.1l9,50.5c-1.6,1-2.7,2.8-2.7,4.8c0,3.1,2.5,5.6,5.6,5.6s5.6-2.5,5.6-5.6c0-2.7-2-5-4.6-5.5 l-9.1-51.3c1.8,0.9,3.6,1.4,5.4,1.4c2,0,4-0.6,5.7-1.9c3.8-2.8,6.4-9.4,2.8-19.5c0.7-0.8,1.2-1.9,1.5-3.2c1.3-5.6-1.3-15.2-6.8-23 c15.9,5.4,28.2,7.3,37.5,7.3c19.4,0,26-8,26.4-8.5C406.3,167.7,406.5,167,406.2,166.3z M226,63.9c8.6-8.7,20.7-10.7,27.7-11 c-17.5,13.8-29.8,30.8-38.1,45.4C214.9,83.2,218.4,71.6,226,63.9z M190.8,98.2c-8.3-14.6-20.7-31.6-38.1-45.4 c7,0.3,19.1,2.3,27.7,11C188,71.6,191.5,83.2,190.8,98.2z M93.3,164.1c-5.7,0-9.8-1.8-12.1-3.1c2.3-1.3,6.4-3.1,12.1-3.1 c5.6,0,9.7,1.7,12.1,3.1C103.1,162.4,99,164.1,93.3,164.1z M6.4,168c0.7-0.2,1.5-0.4,2.4-0.6c14.8-3.7,48.1-12,64.1-6.4 c-1,0.7-2,1.4-2.9,2.2C30.7,178.2,12.8,171.9,6.4,168z M77.2,163.2c1,0.8,2.9,2,5.6,3c-2.3,9-9.2,27.4-19.8,27.4 c-0.3,0-1.1,0-1.5-1.9C60,185.2,65.7,169.1,77.2,163.2z M64.2,212.1c-2.5-1.9-4.2-6.7-1.6-14.5c0.1,0,0.3,0,0.4,0 c1.9,0,3.7-0.4,5.4-1.1c0,5.8,0.4,11.2,3,15.6C68.7,213.5,66.2,213.5,64.2,212.1z M76.8,212.4c-0.1-0.1-0.2-0.2-0.3-0.3 c-0.3-0.3-0.5-0.5-0.7-0.8c0,0,0,0,0,0c0,0-0.1-0.1-0.1-0.1c-0.3-0.4-0.5-0.7-0.8-1.1c-2.5-4-2.6-9.9-2.6-16.2 c8.4-6.8,12.8-21.3,14.2-26.6c2,0.5,4.2,0.7,6.7,0.7s4.7-0.3,6.7-0.7c1.4,5.4,5.9,19.9,14.2,26.6c0,6.3,0,12.1-2.6,16.2 c-0.2,0.3-0.5,0.7-0.8,1.1c0,0-0.1,0-0.1,0.1c0,0,0,0,0,0c-0.2,0.3-0.5,0.5-0.7,0.8c-0.1,0.1-0.2,0.2-0.3,0.3 c-2.4,2.2-7,4.3-16.5,4.3C83.7,216.7,79.2,214.6,76.8,212.4z M122.4,212.1c-1.9,1.5-4.5,1.4-7.1,0c2.6-4.3,2.9-9.8,3-15.6 c1.7,0.7,3.4,1.1,5.4,1.1c0.1,0,0.3,0,0.4,0C126.6,205.3,124.8,210.2,122.4,212.1z M125.1,191.6c-0.4,1.9-1.2,1.9-1.5,1.9 c-10.5,0-17.5-18.4-19.8-27.4c2.7-1.1,4.6-2.3,5.6-3C120.9,169.1,126.5,185.2,125.1,191.6z M177.7,167.4c0.9,0.2,1.7,0.4,2.4,0.6 c-6.4,3.9-24.3,10.2-63.7-4.8c-0.9-0.8-1.9-1.5-2.9-2.2C129.7,155.4,162.9,163.7,177.7,167.4z M98.7,125c0.1,0,2,0.2,4,2.7 c2.9,3.6,6,11.7,4.4,29.7c-2.8-1.6-7.5-3.5-13.9-3.5c-6.4,0-11.1,1.9-13.9,3.5c-1.5-18,1.5-26.1,4.4-29.7c2-2.5,3.9-2.7,4-2.7 c0.5,0,1-0.3,1.4-0.7c0.4-0.4,0.5-0.9,0.5-1.5c-0.3-4,0.1-11.2,2.3-13.5c0.4-0.4,0.8-0.6,1.3-0.6c0.5,0,0.9,0.2,1.3,0.6 c2.2,2.3,2.5,9.5,2.3,13.5C96.8,124,97.7,124.9,98.7,125z M190.8,255.1c-8.3-14.6-20.7-31.6-38.1-45.4c7,0.3,19.1,2.3,27.7,11 C188,228.5,191.5,240.1,190.8,255.1z M226,220.8c8.6-8.7,20.7-10.7,27.7-11c-17.5,13.8-29.8,30.8-38.1,45.4 C214.9,240.1,218.4,228.5,226,220.8z M198.4,43.2c-0.2-0.1-5.8-2.8-7.2-9.6c-1.6-7.5,2.6-17.3,11.9-28.5c9.3,11.2,13.5,21,11.9,28.5 c-1.4,6.8-6.9,9.5-7.2,9.6c-0.7,0.3-1.2,1.1-1.2,1.9c0.3,4-0.1,11.2-2.3,13.5c-0.4,0.4-0.8,0.6-1.3,0.6s-0.9-0.2-1.3-0.6 c-2.2-2.3-2.5-9.5-2.3-13.5C199.6,44.3,199.2,43.6,198.4,43.2z M313.1,164.1c-5.7,0-9.8-1.7-12.1-3.1c2.3-1.3,6.4-3.1,12.1-3.1 c5.6,0,9.7,1.7,12.1,3.1C322.8,162.4,318.7,164.1,313.1,164.1z M303.6,127.8c2-2.5,3.9-2.7,4-2.7c0.5,0,1-0.3,1.4-0.7 c0.4-0.4,0.5-0.9,0.5-1.5c-0.3-4,0.1-11.2,2.3-13.5c0.4-0.4,0.8-0.6,1.3-0.6s0.9,0.2,1.3,0.6c2.2,2.3,2.5,9.5,2.3,13.5 c-0.1,1.1,0.8,2,1.8,2.1c0.1,0,2,0.2,4,2.7c2.9,3.6,6,11.7,4.4,29.7c-2.8-1.6-7.5-3.5-13.9-3.5c-6.4,0-11.1,1.9-13.9,3.5 C297.6,139.5,300.7,131.4,303.6,127.8z M226.2,168c0.7-0.2,1.5-0.4,2.4-0.6c14.8-3.7,48.1-12,64.1-6.4c-1,0.7-2,1.4-2.9,2.2 C250.4,178.2,232.5,171.9,226.2,168z M297,163.2c1,0.8,2.9,2,5.6,3c-2.3,9-9.2,27.4-19.8,27.4c-0.3,0-1.1,0-1.5-1.9 C279.8,185.2,285.5,169.1,297,163.2z M284,212.1c-2.5-1.9-4.2-6.7-1.6-14.5c0.1,0,0.3,0,0.4,0c1.9,0,3.7-0.4,5.4-1.1 c0,5.8,0.4,11.2,3,15.6C288.5,213.5,285.9,213.5,284,212.1z M296.5,212.4c-0.1-0.1-0.2-0.2-0.3-0.3c-0.3-0.3-0.5-0.5-0.7-0.8 c0,0,0,0,0,0c0,0-0.1-0.1-0.1-0.1c-0.3-0.4-0.5-0.7-0.8-1.1c-2.5-4-2.6-9.9-2.6-16.2c8.4-6.8,12.8-21.3,14.2-26.6 c2,0.4,4.2,0.7,6.7,0.7s4.7-0.3,6.7-0.7c1.4,5.4,5.9,19.9,14.2,26.6c0,6.3,0,12.1-2.6,16.2c-0.2,0.3-0.5,0.7-0.8,1.1 c0,0-0.1,0.1-0.1,0.1c0,0,0,0,0,0c-0.2,0.3-0.5,0.5-0.7,0.8c-0.1,0.1-0.2,0.2-0.3,0.3c-2.4,2.2-7,4.3-16.5,4.3 C303.5,216.7,298.9,214.6,296.5,212.4z M342.1,212.1c-1.9,1.5-4.5,1.4-7.1,0c2.6-4.3,2.9-9.8,3-15.6c1.7,0.7,3.4,1.1,5.4,1.1 c0.1,0,0.3,0,0.4,0C346.4,205.3,344.6,210.2,342.1,212.1z M344.9,191.6c-0.4,1.9-1.2,1.9-1.5,1.9c-10.5,0-17.5-18.4-19.8-27.4 c2.7-1.1,4.6-2.3,5.6-3C340.6,169.1,346.3,185.2,344.9,191.6z M336.2,163.2c-0.9-0.8-1.9-1.5-2.9-2.2c16.1-5.6,49.3,2.7,64.1,6.4 c0.9,0.2,1.7,0.4,2.5,0.6C393.8,172,376,178.3,336.2,163.2z" style="fill: rgb(93, 89, 53);"/></g></svg>